<svg xmlns="http://www.w3.org/2000/svg" width="160" height="90" viewBox="0 0 42.333 23.813">
	<path fill="#98aaf2" d="M0 0h42.333v23.813H0z"/>
	<path d="M0 0v2.993L2.993 0H0zm6.158 0L0 6.158v3.167L9.325 0H6.158zm6.334 0L0 12.492v3.165L15.657 0h-3.165zm6.332 0L0 18.824v3.167L21.99 0h-3.166zm6.333 0L1.345 23.812H4.51L28.323 0h-3.166zm6.333 0L7.678 23.812h3.165L34.656 0H31.49zm6.332 0L14.01 23.812h3.166L40.99 0h-3.167zm4.511 1.822l-21.99 21.99h3.166L42.333 4.988V1.822zm0 6.333L26.675 23.812h3.167l12.491-12.491V8.155zm0 6.332l-9.325 9.325h3.167l6.158-6.158v-3.167zm0 6.333l-2.992 2.992h2.992V20.82z" fill-opacity=".05"/>
	<path fill="none" stroke="#fff" stroke-width=".272" d="M1.323 1.323H41.01V22.49H1.323z"/>
</svg>
